<mxfile host="app.diagrams.net" modified="2024-07-25T17:18:35.440Z" agent="Mozilla/5.0 (Windows NT 10.0; Win64; x64) AppleWebKit/537.36 (KHTML, like Gecko) Chrome/126.0.0.0 Safari/537.36" etag="Zr0B9lEgr9ehgLrrX295" version="24.7.1" type="github">
  <diagram id="R2lEEEUBdFMjLlhIrx00" name="Page-1">
    <mxGraphModel dx="1293" dy="1658" grid="1" gridSize="10" guides="1" tooltips="1" connect="1" arrows="1" fold="1" page="1" pageScale="1" pageWidth="850" pageHeight="1100" math="0" shadow="0" extFonts="Permanent Marker^https://fonts.googleapis.com/css?family=Permanent+Marker">
      <root>
        <mxCell id="0" />
        <mxCell id="1" parent="0" />
        <mxCell id="pN9TnFsPDJNRL63oC1Xb-1" value="&lt;font face=&quot;Times New Roman&quot;&gt;Blood Bank&lt;/font&gt;" style="rounded=0;whiteSpace=wrap;html=1;" vertex="1" parent="1">
          <mxGeometry x="620" y="460" width="120" height="60" as="geometry" />
        </mxCell>
        <mxCell id="pN9TnFsPDJNRL63oC1Xb-2" value="&lt;font face=&quot;Times New Roman&quot;&gt;Blood Request Form&lt;/font&gt;" style="rounded=0;whiteSpace=wrap;html=1;" vertex="1" parent="1">
          <mxGeometry x="620" y="160" width="120" height="60" as="geometry" />
        </mxCell>
        <mxCell id="pN9TnFsPDJNRL63oC1Xb-3" value="&lt;font face=&quot;Times New Roman&quot;&gt;User&lt;/font&gt;" style="rounded=0;whiteSpace=wrap;html=1;" vertex="1" parent="1">
          <mxGeometry x="100" y="160" width="120" height="60" as="geometry" />
        </mxCell>
        <mxCell id="pN9TnFsPDJNRL63oC1Xb-5" value="&lt;font face=&quot;Times New Roman&quot;&gt;Donation Form&lt;/font&gt;" style="rounded=0;whiteSpace=wrap;html=1;" vertex="1" parent="1">
          <mxGeometry x="100" y="460" width="120" height="60" as="geometry" />
        </mxCell>
        <mxCell id="pN9TnFsPDJNRL63oC1Xb-7" value="&lt;font face=&quot;Times New Roman&quot;&gt;makes&lt;/font&gt;" style="rhombus;whiteSpace=wrap;html=1;" vertex="1" parent="1">
          <mxGeometry x="380" y="150" width="80" height="80" as="geometry" />
        </mxCell>
        <mxCell id="pN9TnFsPDJNRL63oC1Xb-12" value="" style="endArrow=none;html=1;rounded=0;entryX=0;entryY=0.5;entryDx=0;entryDy=0;exitX=1;exitY=0.5;exitDx=0;exitDy=0;" edge="1" parent="1" source="pN9TnFsPDJNRL63oC1Xb-3" target="pN9TnFsPDJNRL63oC1Xb-7">
          <mxGeometry width="50" height="50" relative="1" as="geometry">
            <mxPoint x="410" y="370" as="sourcePoint" />
            <mxPoint x="460" y="320" as="targetPoint" />
            <Array as="points">
              <mxPoint x="220" y="190" />
            </Array>
          </mxGeometry>
        </mxCell>
        <mxCell id="pN9TnFsPDJNRL63oC1Xb-15" value="" style="endArrow=none;html=1;rounded=0;entryX=0;entryY=0.5;entryDx=0;entryDy=0;" edge="1" parent="1" target="pN9TnFsPDJNRL63oC1Xb-2">
          <mxGeometry width="50" height="50" relative="1" as="geometry">
            <mxPoint x="460" y="190" as="sourcePoint" />
            <mxPoint x="510" y="140" as="targetPoint" />
          </mxGeometry>
        </mxCell>
        <mxCell id="pN9TnFsPDJNRL63oC1Xb-21" value="&lt;font face=&quot;Times New Roman&quot;&gt;UserID (PK)&lt;/font&gt;" style="ellipse;whiteSpace=wrap;html=1;" vertex="1" parent="1">
          <mxGeometry x="80" y="30" width="70" height="40" as="geometry" />
        </mxCell>
        <mxCell id="pN9TnFsPDJNRL63oC1Xb-23" value="&lt;font face=&quot;Times New Roman&quot;&gt;Name&lt;/font&gt;" style="ellipse;whiteSpace=wrap;html=1;" vertex="1" parent="1">
          <mxGeometry x="170" y="30" width="70" height="40" as="geometry" />
        </mxCell>
        <mxCell id="pN9TnFsPDJNRL63oC1Xb-24" value="&lt;font face=&quot;Times New Roman&quot;&gt;Email&lt;/font&gt;" style="ellipse;whiteSpace=wrap;html=1;" vertex="1" parent="1">
          <mxGeometry x="210" y="70" width="70" height="40" as="geometry" />
        </mxCell>
        <mxCell id="pN9TnFsPDJNRL63oC1Xb-25" value="&lt;font face=&quot;Times New Roman&quot;&gt;Password&lt;/font&gt;" style="ellipse;whiteSpace=wrap;html=1;" vertex="1" parent="1">
          <mxGeometry x="250" y="120" width="70" height="40" as="geometry" />
        </mxCell>
        <mxCell id="pN9TnFsPDJNRL63oC1Xb-26" value="&lt;font face=&quot;Times New Roman&quot;&gt;PhoneNumber&lt;/font&gt;" style="ellipse;whiteSpace=wrap;html=1;" vertex="1" parent="1">
          <mxGeometry x="30" y="70" width="70" height="40" as="geometry" />
        </mxCell>
        <mxCell id="pN9TnFsPDJNRL63oC1Xb-27" value="&lt;font face=&quot;Times New Roman&quot;&gt;Blood Type&lt;/font&gt;" style="ellipse;whiteSpace=wrap;html=1;" vertex="1" parent="1">
          <mxGeometry y="120" width="70" height="40" as="geometry" />
        </mxCell>
        <mxCell id="pN9TnFsPDJNRL63oC1Xb-28" value="&lt;font face=&quot;Times New Roman&quot;&gt;RequestID (PK)&lt;/font&gt;" style="ellipse;whiteSpace=wrap;html=1;" vertex="1" parent="1">
          <mxGeometry x="530" y="120" width="70" height="40" as="geometry" />
        </mxCell>
        <mxCell id="pN9TnFsPDJNRL63oC1Xb-29" value="&lt;font face=&quot;Times New Roman&quot;&gt;UserID(FK)&lt;/font&gt;" style="ellipse;whiteSpace=wrap;html=1;" vertex="1" parent="1">
          <mxGeometry x="570" y="70" width="70" height="40" as="geometry" />
        </mxCell>
        <mxCell id="pN9TnFsPDJNRL63oC1Xb-30" value="&lt;font face=&quot;Times New Roman&quot;&gt;BloodType&lt;/font&gt;" style="ellipse;whiteSpace=wrap;html=1;" vertex="1" parent="1">
          <mxGeometry x="610" y="20" width="70" height="40" as="geometry" />
        </mxCell>
        <mxCell id="pN9TnFsPDJNRL63oC1Xb-31" value="&lt;font face=&quot;Times New Roman&quot;&gt;RequestDate&lt;/font&gt;" style="ellipse;whiteSpace=wrap;html=1;" vertex="1" parent="1">
          <mxGeometry x="740" y="70" width="70" height="40" as="geometry" />
        </mxCell>
        <mxCell id="pN9TnFsPDJNRL63oC1Xb-32" value="&lt;font face=&quot;Times New Roman&quot;&gt;Quantity&lt;/font&gt;" style="ellipse;whiteSpace=wrap;html=1;" vertex="1" parent="1">
          <mxGeometry x="700" y="20" width="70" height="40" as="geometry" />
        </mxCell>
        <mxCell id="pN9TnFsPDJNRL63oC1Xb-33" value="&lt;font face=&quot;Times New Roman&quot;&gt;Status&lt;/font&gt;" style="ellipse;whiteSpace=wrap;html=1;" vertex="1" parent="1">
          <mxGeometry x="770" y="120" width="70" height="40" as="geometry" />
        </mxCell>
        <mxCell id="pN9TnFsPDJNRL63oC1Xb-34" value="" style="endArrow=none;html=1;rounded=0;exitX=0.5;exitY=1;exitDx=0;exitDy=0;entryX=0.25;entryY=0;entryDx=0;entryDy=0;" edge="1" parent="1" source="pN9TnFsPDJNRL63oC1Xb-29" target="pN9TnFsPDJNRL63oC1Xb-2">
          <mxGeometry width="50" height="50" relative="1" as="geometry">
            <mxPoint x="600" y="160" as="sourcePoint" />
            <mxPoint x="650" y="110" as="targetPoint" />
          </mxGeometry>
        </mxCell>
        <mxCell id="pN9TnFsPDJNRL63oC1Xb-35" value="" style="endArrow=none;html=1;rounded=0;entryX=0.5;entryY=1;entryDx=0;entryDy=0;exitX=0.5;exitY=0;exitDx=0;exitDy=0;" edge="1" parent="1" source="pN9TnFsPDJNRL63oC1Xb-2" target="pN9TnFsPDJNRL63oC1Xb-30">
          <mxGeometry width="50" height="50" relative="1" as="geometry">
            <mxPoint x="640" y="140" as="sourcePoint" />
            <mxPoint x="690" y="90" as="targetPoint" />
          </mxGeometry>
        </mxCell>
        <mxCell id="pN9TnFsPDJNRL63oC1Xb-36" value="" style="endArrow=none;html=1;rounded=0;entryX=0.5;entryY=1;entryDx=0;entryDy=0;exitX=0.75;exitY=0;exitDx=0;exitDy=0;" edge="1" parent="1" source="pN9TnFsPDJNRL63oC1Xb-2" target="pN9TnFsPDJNRL63oC1Xb-31">
          <mxGeometry width="50" height="50" relative="1" as="geometry">
            <mxPoint x="719.9999999999999" y="160.00000000000006" as="sourcePoint" />
            <mxPoint x="771.6112626584708" y="103.78213562373084" as="targetPoint" />
            <Array as="points" />
          </mxGeometry>
        </mxCell>
        <mxCell id="pN9TnFsPDJNRL63oC1Xb-37" value="" style="endArrow=none;html=1;rounded=0;exitX=1;exitY=0.25;exitDx=0;exitDy=0;entryX=0;entryY=1;entryDx=0;entryDy=0;" edge="1" parent="1" source="pN9TnFsPDJNRL63oC1Xb-2" target="pN9TnFsPDJNRL63oC1Xb-33">
          <mxGeometry width="50" height="50" relative="1" as="geometry">
            <mxPoint x="750" y="210" as="sourcePoint" />
            <mxPoint x="800" y="160" as="targetPoint" />
          </mxGeometry>
        </mxCell>
        <mxCell id="pN9TnFsPDJNRL63oC1Xb-38" value="" style="endArrow=none;html=1;rounded=0;entryX=0.5;entryY=1;entryDx=0;entryDy=0;exitX=0.5;exitY=0;exitDx=0;exitDy=0;" edge="1" parent="1" source="pN9TnFsPDJNRL63oC1Xb-2" target="pN9TnFsPDJNRL63oC1Xb-32">
          <mxGeometry width="50" height="50" relative="1" as="geometry">
            <mxPoint x="695" y="115" as="sourcePoint" />
            <mxPoint x="745" y="65" as="targetPoint" />
          </mxGeometry>
        </mxCell>
        <mxCell id="pN9TnFsPDJNRL63oC1Xb-40" value="" style="endArrow=none;html=1;rounded=0;entryX=0;entryY=0.25;entryDx=0;entryDy=0;exitX=1;exitY=1;exitDx=0;exitDy=0;" edge="1" parent="1" source="pN9TnFsPDJNRL63oC1Xb-27" target="pN9TnFsPDJNRL63oC1Xb-3">
          <mxGeometry width="50" height="50" relative="1" as="geometry">
            <mxPoint x="60" y="140" as="sourcePoint" />
            <mxPoint x="90" y="150" as="targetPoint" />
          </mxGeometry>
        </mxCell>
        <mxCell id="pN9TnFsPDJNRL63oC1Xb-41" value="" style="endArrow=none;html=1;rounded=0;exitX=0.5;exitY=1;exitDx=0;exitDy=0;" edge="1" parent="1" source="pN9TnFsPDJNRL63oC1Xb-26">
          <mxGeometry width="50" height="50" relative="1" as="geometry">
            <mxPoint x="80" y="120" as="sourcePoint" />
            <mxPoint x="130" y="160" as="targetPoint" />
          </mxGeometry>
        </mxCell>
        <mxCell id="pN9TnFsPDJNRL63oC1Xb-42" value="" style="endArrow=none;html=1;rounded=0;entryX=0.5;entryY=0;entryDx=0;entryDy=0;" edge="1" parent="1" target="pN9TnFsPDJNRL63oC1Xb-3">
          <mxGeometry width="50" height="50" relative="1" as="geometry">
            <mxPoint x="120" y="60" as="sourcePoint" />
            <mxPoint x="170" y="10" as="targetPoint" />
          </mxGeometry>
        </mxCell>
        <mxCell id="pN9TnFsPDJNRL63oC1Xb-43" value="" style="endArrow=none;html=1;rounded=0;exitX=0.5;exitY=0;exitDx=0;exitDy=0;entryX=0.5;entryY=1;entryDx=0;entryDy=0;" edge="1" parent="1" source="pN9TnFsPDJNRL63oC1Xb-3" target="pN9TnFsPDJNRL63oC1Xb-23">
          <mxGeometry width="50" height="50" relative="1" as="geometry">
            <mxPoint x="135" y="110" as="sourcePoint" />
            <mxPoint x="185" y="60" as="targetPoint" />
          </mxGeometry>
        </mxCell>
        <mxCell id="pN9TnFsPDJNRL63oC1Xb-44" value="" style="endArrow=none;html=1;rounded=0;exitX=0.75;exitY=0;exitDx=0;exitDy=0;entryX=0.5;entryY=1;entryDx=0;entryDy=0;" edge="1" parent="1" source="pN9TnFsPDJNRL63oC1Xb-3" target="pN9TnFsPDJNRL63oC1Xb-24">
          <mxGeometry width="50" height="50" relative="1" as="geometry">
            <mxPoint x="170" y="160" as="sourcePoint" />
            <mxPoint x="220" y="110" as="targetPoint" />
          </mxGeometry>
        </mxCell>
        <mxCell id="pN9TnFsPDJNRL63oC1Xb-45" value="" style="endArrow=none;html=1;rounded=0;exitX=1;exitY=0.25;exitDx=0;exitDy=0;entryX=0;entryY=1;entryDx=0;entryDy=0;" edge="1" parent="1" source="pN9TnFsPDJNRL63oC1Xb-3" target="pN9TnFsPDJNRL63oC1Xb-25">
          <mxGeometry width="50" height="50" relative="1" as="geometry">
            <mxPoint x="200" y="210" as="sourcePoint" />
            <mxPoint x="250" y="160" as="targetPoint" />
          </mxGeometry>
        </mxCell>
        <mxCell id="pN9TnFsPDJNRL63oC1Xb-47" value="" style="endArrow=none;html=1;rounded=0;exitX=1;exitY=1;exitDx=0;exitDy=0;entryX=0;entryY=0.25;entryDx=0;entryDy=0;" edge="1" parent="1" source="pN9TnFsPDJNRL63oC1Xb-28" target="pN9TnFsPDJNRL63oC1Xb-2">
          <mxGeometry width="50" height="50" relative="1" as="geometry">
            <mxPoint x="610" y="170" as="sourcePoint" />
            <mxPoint x="660" y="120" as="targetPoint" />
          </mxGeometry>
        </mxCell>
        <mxCell id="pN9TnFsPDJNRL63oC1Xb-48" value="1" style="text;html=1;align=center;verticalAlign=middle;resizable=0;points=[];autosize=1;strokeColor=none;fillColor=none;" vertex="1" parent="1">
          <mxGeometry x="305" y="168" width="30" height="30" as="geometry" />
        </mxCell>
        <mxCell id="pN9TnFsPDJNRL63oC1Xb-50" value="&lt;font face=&quot;Times New Roman&quot;&gt;Donates&lt;/font&gt;" style="rhombus;whiteSpace=wrap;html=1;" vertex="1" parent="1">
          <mxGeometry x="120" y="300" width="80" height="80" as="geometry" />
        </mxCell>
        <mxCell id="pN9TnFsPDJNRL63oC1Xb-51" value="Fulfilled By" style="rhombus;whiteSpace=wrap;html=1;" vertex="1" parent="1">
          <mxGeometry x="640" y="300" width="80" height="80" as="geometry" />
        </mxCell>
        <mxCell id="pN9TnFsPDJNRL63oC1Xb-52" value="&lt;font face=&quot;Times New Roman&quot;&gt;BloodType&lt;br&gt;&lt;/font&gt;" style="ellipse;whiteSpace=wrap;html=1;" vertex="1" parent="1">
          <mxGeometry x="125" y="620" width="70" height="40" as="geometry" />
        </mxCell>
        <mxCell id="pN9TnFsPDJNRL63oC1Xb-53" value="&lt;font face=&quot;Times New Roman&quot;&gt;UserID (FK)&lt;/font&gt;" style="ellipse;whiteSpace=wrap;html=1;" vertex="1" parent="1">
          <mxGeometry x="70" y="580" width="70" height="40" as="geometry" />
        </mxCell>
        <mxCell id="pN9TnFsPDJNRL63oC1Xb-54" value="&lt;font face=&quot;Times New Roman&quot;&gt;Quantity&lt;/font&gt;" style="ellipse;whiteSpace=wrap;html=1;" vertex="1" parent="1">
          <mxGeometry x="180" y="580" width="70" height="40" as="geometry" />
        </mxCell>
        <mxCell id="pN9TnFsPDJNRL63oC1Xb-55" value="&lt;font face=&quot;Times New Roman&quot;&gt;DonationID (PK)&lt;/font&gt;" style="ellipse;whiteSpace=wrap;html=1;" vertex="1" parent="1">
          <mxGeometry x="30" y="530" width="70" height="40" as="geometry" />
        </mxCell>
        <mxCell id="pN9TnFsPDJNRL63oC1Xb-56" value="&lt;font face=&quot;Times New Roman&quot;&gt;DonationDate&lt;br&gt;&lt;/font&gt;" style="ellipse;whiteSpace=wrap;html=1;" vertex="1" parent="1">
          <mxGeometry x="220" y="530" width="70" height="40" as="geometry" />
        </mxCell>
        <mxCell id="pN9TnFsPDJNRL63oC1Xb-59" value="&lt;font face=&quot;Times New Roman&quot;&gt;BloodType&lt;br&gt;&lt;/font&gt;" style="ellipse;whiteSpace=wrap;html=1;" vertex="1" parent="1">
          <mxGeometry x="690" y="620" width="70" height="40" as="geometry" />
        </mxCell>
        <mxCell id="pN9TnFsPDJNRL63oC1Xb-60" value="&lt;font face=&quot;Times New Roman&quot;&gt;ContactInfo&lt;br&gt;&lt;/font&gt;" style="ellipse;whiteSpace=wrap;html=1;" vertex="1" parent="1">
          <mxGeometry x="760" y="520" width="70" height="40" as="geometry" />
        </mxCell>
        <mxCell id="pN9TnFsPDJNRL63oC1Xb-61" value="&lt;font face=&quot;Times New Roman&quot;&gt;QuantityAvailable&lt;br&gt;&lt;/font&gt;" style="ellipse;whiteSpace=wrap;html=1;" vertex="1" parent="1">
          <mxGeometry x="730" y="570" width="90" height="40" as="geometry" />
        </mxCell>
        <mxCell id="pN9TnFsPDJNRL63oC1Xb-62" value="&lt;font face=&quot;Times New Roman&quot;&gt;Location&lt;/font&gt;" style="ellipse;whiteSpace=wrap;html=1;" vertex="1" parent="1">
          <mxGeometry x="610" y="620" width="70" height="40" as="geometry" />
        </mxCell>
        <mxCell id="pN9TnFsPDJNRL63oC1Xb-63" value="&lt;div&gt;&lt;br&gt;&lt;/div&gt;&lt;font face=&quot;Times New Roman&quot;&gt;Name&lt;/font&gt;&lt;div&gt;&lt;br&gt;&lt;/div&gt;" style="ellipse;whiteSpace=wrap;html=1;" vertex="1" parent="1">
          <mxGeometry x="570" y="570" width="70" height="40" as="geometry" />
        </mxCell>
        <mxCell id="pN9TnFsPDJNRL63oC1Xb-64" value="&lt;font face=&quot;Times New Roman&quot;&gt;BloodBankID (PK)&lt;/font&gt;" style="ellipse;whiteSpace=wrap;html=1;" vertex="1" parent="1">
          <mxGeometry x="520" y="520" width="80" height="40" as="geometry" />
        </mxCell>
        <mxCell id="pN9TnFsPDJNRL63oC1Xb-66" value="N" style="text;html=1;align=center;verticalAlign=middle;resizable=0;points=[];autosize=1;strokeColor=none;fillColor=none;" vertex="1" parent="1">
          <mxGeometry x="515" y="168" width="30" height="30" as="geometry" />
        </mxCell>
        <mxCell id="pN9TnFsPDJNRL63oC1Xb-67" value="" style="endArrow=none;html=1;rounded=0;entryX=0.5;entryY=1;entryDx=0;entryDy=0;exitX=0.5;exitY=0;exitDx=0;exitDy=0;" edge="1" parent="1" source="pN9TnFsPDJNRL63oC1Xb-50" target="pN9TnFsPDJNRL63oC1Xb-3">
          <mxGeometry width="50" height="50" relative="1" as="geometry">
            <mxPoint x="160" y="310" as="sourcePoint" />
            <mxPoint x="210" y="260" as="targetPoint" />
          </mxGeometry>
        </mxCell>
        <mxCell id="pN9TnFsPDJNRL63oC1Xb-68" value="" style="endArrow=none;html=1;rounded=0;entryX=0.5;entryY=1;entryDx=0;entryDy=0;exitX=0.5;exitY=0;exitDx=0;exitDy=0;" edge="1" parent="1" source="pN9TnFsPDJNRL63oC1Xb-5" target="pN9TnFsPDJNRL63oC1Xb-50">
          <mxGeometry width="50" height="50" relative="1" as="geometry">
            <mxPoint x="160" y="440" as="sourcePoint" />
            <mxPoint x="210" y="390" as="targetPoint" />
          </mxGeometry>
        </mxCell>
        <mxCell id="pN9TnFsPDJNRL63oC1Xb-69" value="" style="endArrow=none;html=1;rounded=0;entryX=0.5;entryY=1;entryDx=0;entryDy=0;exitX=0.5;exitY=0;exitDx=0;exitDy=0;" edge="1" parent="1" source="pN9TnFsPDJNRL63oC1Xb-51" target="pN9TnFsPDJNRL63oC1Xb-2">
          <mxGeometry width="50" height="50" relative="1" as="geometry">
            <mxPoint x="640" y="270" as="sourcePoint" />
            <mxPoint x="690" y="220" as="targetPoint" />
          </mxGeometry>
        </mxCell>
        <mxCell id="pN9TnFsPDJNRL63oC1Xb-70" value="" style="endArrow=none;html=1;rounded=0;entryX=0.5;entryY=1;entryDx=0;entryDy=0;exitX=0.5;exitY=0;exitDx=0;exitDy=0;" edge="1" parent="1" source="pN9TnFsPDJNRL63oC1Xb-1" target="pN9TnFsPDJNRL63oC1Xb-51">
          <mxGeometry width="50" height="50" relative="1" as="geometry">
            <mxPoint x="640" y="430" as="sourcePoint" />
            <mxPoint x="690" y="380" as="targetPoint" />
          </mxGeometry>
        </mxCell>
        <mxCell id="pN9TnFsPDJNRL63oC1Xb-71" value="" style="endArrow=none;html=1;rounded=0;entryX=0.25;entryY=1;entryDx=0;entryDy=0;exitX=1;exitY=0;exitDx=0;exitDy=0;" edge="1" parent="1" source="pN9TnFsPDJNRL63oC1Xb-55" target="pN9TnFsPDJNRL63oC1Xb-5">
          <mxGeometry width="50" height="50" relative="1" as="geometry">
            <mxPoint x="135" y="600" as="sourcePoint" />
            <mxPoint x="185" y="550" as="targetPoint" />
          </mxGeometry>
        </mxCell>
        <mxCell id="pN9TnFsPDJNRL63oC1Xb-72" value="" style="endArrow=none;html=1;rounded=0;entryX=0.5;entryY=1;entryDx=0;entryDy=0;exitX=0.5;exitY=0;exitDx=0;exitDy=0;" edge="1" parent="1" source="pN9TnFsPDJNRL63oC1Xb-53" target="pN9TnFsPDJNRL63oC1Xb-5">
          <mxGeometry width="50" height="50" relative="1" as="geometry">
            <mxPoint x="150" y="590" as="sourcePoint" />
            <mxPoint x="200" y="540" as="targetPoint" />
          </mxGeometry>
        </mxCell>
        <mxCell id="pN9TnFsPDJNRL63oC1Xb-73" value="" style="endArrow=none;html=1;rounded=0;exitX=0.5;exitY=0;exitDx=0;exitDy=0;" edge="1" parent="1" source="pN9TnFsPDJNRL63oC1Xb-52">
          <mxGeometry width="50" height="50" relative="1" as="geometry">
            <mxPoint x="160" y="575" as="sourcePoint" />
            <mxPoint x="160" y="525" as="targetPoint" />
          </mxGeometry>
        </mxCell>
        <mxCell id="pN9TnFsPDJNRL63oC1Xb-74" value="" style="endArrow=none;html=1;rounded=0;entryX=0.5;entryY=1;entryDx=0;entryDy=0;exitX=0.5;exitY=0;exitDx=0;exitDy=0;" edge="1" parent="1" source="pN9TnFsPDJNRL63oC1Xb-54" target="pN9TnFsPDJNRL63oC1Xb-5">
          <mxGeometry width="50" height="50" relative="1" as="geometry">
            <mxPoint x="160" y="580" as="sourcePoint" />
            <mxPoint x="210" y="530" as="targetPoint" />
          </mxGeometry>
        </mxCell>
        <mxCell id="pN9TnFsPDJNRL63oC1Xb-75" value="" style="endArrow=none;html=1;rounded=0;entryX=0.75;entryY=1;entryDx=0;entryDy=0;exitX=0;exitY=0;exitDx=0;exitDy=0;" edge="1" parent="1" source="pN9TnFsPDJNRL63oC1Xb-56" target="pN9TnFsPDJNRL63oC1Xb-5">
          <mxGeometry width="50" height="50" relative="1" as="geometry">
            <mxPoint x="350" y="580" as="sourcePoint" />
            <mxPoint x="400" y="530" as="targetPoint" />
          </mxGeometry>
        </mxCell>
        <mxCell id="pN9TnFsPDJNRL63oC1Xb-76" value="" style="endArrow=none;html=1;rounded=0;entryX=0.5;entryY=1;entryDx=0;entryDy=0;exitX=0.5;exitY=0;exitDx=0;exitDy=0;" edge="1" parent="1" source="pN9TnFsPDJNRL63oC1Xb-62" target="pN9TnFsPDJNRL63oC1Xb-1">
          <mxGeometry width="50" height="50" relative="1" as="geometry">
            <mxPoint x="620" y="570" as="sourcePoint" />
            <mxPoint x="670" y="520" as="targetPoint" />
          </mxGeometry>
        </mxCell>
        <mxCell id="pN9TnFsPDJNRL63oC1Xb-77" value="" style="endArrow=none;html=1;rounded=0;exitX=0.5;exitY=0;exitDx=0;exitDy=0;entryX=0.5;entryY=1;entryDx=0;entryDy=0;" edge="1" parent="1" source="pN9TnFsPDJNRL63oC1Xb-59" target="pN9TnFsPDJNRL63oC1Xb-1">
          <mxGeometry width="50" height="50" relative="1" as="geometry">
            <mxPoint x="540" y="550" as="sourcePoint" />
            <mxPoint x="680" y="530" as="targetPoint" />
          </mxGeometry>
        </mxCell>
        <mxCell id="pN9TnFsPDJNRL63oC1Xb-78" value="" style="endArrow=none;html=1;rounded=0;entryX=0.75;entryY=1;entryDx=0;entryDy=0;exitX=0.5;exitY=0;exitDx=0;exitDy=0;" edge="1" parent="1" source="pN9TnFsPDJNRL63oC1Xb-61" target="pN9TnFsPDJNRL63oC1Xb-1">
          <mxGeometry width="50" height="50" relative="1" as="geometry">
            <mxPoint x="550" y="560" as="sourcePoint" />
            <mxPoint x="600" y="510" as="targetPoint" />
          </mxGeometry>
        </mxCell>
        <mxCell id="pN9TnFsPDJNRL63oC1Xb-79" value="" style="endArrow=none;html=1;rounded=0;entryX=0.25;entryY=1;entryDx=0;entryDy=0;exitX=0.5;exitY=0;exitDx=0;exitDy=0;" edge="1" parent="1" source="pN9TnFsPDJNRL63oC1Xb-63" target="pN9TnFsPDJNRL63oC1Xb-1">
          <mxGeometry width="50" height="50" relative="1" as="geometry">
            <mxPoint x="560" y="570" as="sourcePoint" />
            <mxPoint x="610" y="520" as="targetPoint" />
          </mxGeometry>
        </mxCell>
        <mxCell id="pN9TnFsPDJNRL63oC1Xb-80" value="" style="endArrow=none;html=1;rounded=0;entryX=0;entryY=0.75;entryDx=0;entryDy=0;exitX=1;exitY=0;exitDx=0;exitDy=0;" edge="1" parent="1" source="pN9TnFsPDJNRL63oC1Xb-64" target="pN9TnFsPDJNRL63oC1Xb-1">
          <mxGeometry width="50" height="50" relative="1" as="geometry">
            <mxPoint x="570" y="580" as="sourcePoint" />
            <mxPoint x="620" y="530" as="targetPoint" />
          </mxGeometry>
        </mxCell>
        <mxCell id="pN9TnFsPDJNRL63oC1Xb-81" value="" style="endArrow=none;html=1;rounded=0;exitX=0;exitY=0;exitDx=0;exitDy=0;entryX=1;entryY=0.75;entryDx=0;entryDy=0;" edge="1" parent="1" source="pN9TnFsPDJNRL63oC1Xb-60" target="pN9TnFsPDJNRL63oC1Xb-1">
          <mxGeometry width="50" height="50" relative="1" as="geometry">
            <mxPoint x="580" y="590" as="sourcePoint" />
            <mxPoint x="630" y="540" as="targetPoint" />
          </mxGeometry>
        </mxCell>
        <mxCell id="pN9TnFsPDJNRL63oC1Xb-83" value="&lt;font face=&quot;Times New Roman&quot;&gt;Medical History&lt;/font&gt;" style="ellipse;whiteSpace=wrap;html=1;" vertex="1" parent="1">
          <mxGeometry x="125" y="-10" width="70" height="40" as="geometry" />
        </mxCell>
        <mxCell id="pN9TnFsPDJNRL63oC1Xb-84" value="" style="endArrow=none;html=1;rounded=0;entryX=0.5;entryY=1;entryDx=0;entryDy=0;" edge="1" parent="1" target="pN9TnFsPDJNRL63oC1Xb-83">
          <mxGeometry width="50" height="50" relative="1" as="geometry">
            <mxPoint x="160" y="160" as="sourcePoint" />
            <mxPoint x="190" y="90" as="targetPoint" />
          </mxGeometry>
        </mxCell>
        <mxCell id="pN9TnFsPDJNRL63oC1Xb-85" value="1" style="text;html=1;align=center;verticalAlign=middle;resizable=0;points=[];autosize=1;strokeColor=none;fillColor=none;" vertex="1" parent="1">
          <mxGeometry x="135" y="258" width="30" height="30" as="geometry" />
        </mxCell>
        <mxCell id="pN9TnFsPDJNRL63oC1Xb-86" value="N" style="text;html=1;align=center;verticalAlign=middle;resizable=0;points=[];autosize=1;strokeColor=none;fillColor=none;" vertex="1" parent="1">
          <mxGeometry x="135" y="398" width="30" height="30" as="geometry" />
        </mxCell>
        <mxCell id="pN9TnFsPDJNRL63oC1Xb-87" value="N" style="text;html=1;align=center;verticalAlign=middle;resizable=0;points=[];autosize=1;strokeColor=none;fillColor=none;" vertex="1" parent="1">
          <mxGeometry x="685" y="258" width="30" height="30" as="geometry" />
        </mxCell>
        <mxCell id="pN9TnFsPDJNRL63oC1Xb-88" value="M" style="text;html=1;align=center;verticalAlign=middle;resizable=0;points=[];autosize=1;strokeColor=none;fillColor=none;" vertex="1" parent="1">
          <mxGeometry x="685" y="398" width="30" height="30" as="geometry" />
        </mxCell>
      </root>
    </mxGraphModel>
  </diagram>
</mxfile>
